<svg xmlns:dc="http://purl.org/dc/elements/1.1/" xmlns:cc="http://creativecommons.org/ns#" xmlns:rdf="http://www.w3.org/1999/02/22-rdf-syntax-ns#" xmlns:svg="http://www.w3.org/2000/svg" xmlns="http://www.w3.org/2000/svg" xmlns:sodipodi="http://sodipodi.sourceforge.net/DTD/sodipodi-0.dtd" xmlns:inkscape="http://www.inkscape.org/namespaces/inkscape" version="1.1" x="0px" y="0px" viewBox="0 0 100 125"><g transform="translate(0,-952.36218)"><path d="m 67.9557,967.36217 22.0465,0 c 1.769901,0.2725 2.6154,1.4408 2.9978,3 l 0,64.06253 c -0.302499,1.7612 -1.5086,2.4873 -2.9978,2.9375 l -21.9841,0 c -1.7622,-0.2717 -2.5501,-1.4031 -2.9979,-2.9061 0,-5.706 0,-11.4169 0,-17.1247 1.6298,-0.092 3.0179,-0.424 4.0908,-1.3439 1.750699,-2.3559 1.8425,-4.1043 1.8425,-6.625 l 17.0501,0 0,-2 -17.0501,0 0,-13.00003 c 5.3439,0 10.7018,0 16.0508,0 2.507599,-0.1141 3.9748,-1.7369 3.997201,-4 l 0,-2 c -0.097,-2.5301 -1.707201,-3.9774 -3.997201,-4 -5.3487,0 -10.7072,0 -16.0508,0 l 0,-2 c 5.3439,0 10.7018,0 16.0508,0 2.507599,-0.1141 3.9748,-1.7369 3.997201,-4 l 0,-2 c -0.097,-2.5301 -1.707201,-3.9774 -3.997201,-4 -5.0276,-0.013 -12.0226,-0.013 -16.862801,0.062 -0.251,-0.4735 -0.5639,-0.9046 -0.9368,-1.2813 -0.9926,-1.0024 -2.3476,-1.55 -3.9659,-1.7187 0.4848,-1.2508 1.5625,-1.7034 2.7169,-2.0623 z m -55.9908,4 52.1498,0 c 1.771,0 2.9376,0.4329 3.6848,1.1875 0.7472,0.7547 1.1726,1.929 1.1554,3.7187 l 0,34.15633 c -0.1138,1.3478 -0.1709,3.2053 -1.1242,4.0625 -0.702,0.6019 -1.9629,0.875 -3.9346,0.875 l -51.8688,0 c -1.8359,0 -3.0211005,-0.4304 -3.7784005,-1.1875 -0.7524,-0.7519 -1.1952,-1.9695 -1.2179,-3.8125 -0.01,-11.32283 -0.021,-22.64593 -0.031,-33.96883 0.017,-1.8516 0.4543,-3.0742 1.2179,-3.8437 1.3193,-0.8769 2.5549005,-1.1767 3.7471005,-1.1875 z m 58.8324,3 c 5.4023,0 10.8046,0 16.207,0 1.5773,0.022 1.8072,0.8869 1.9985,2 l 0,2 c -0.041,1.5613 -0.9131,1.8095 -1.9985,2 -5.3483,0 -10.7089,0 -16.0508,0 0.01,-1.976 0.069,-4.1432 -0.1562,-6 z m -59.8004,1 c 0,12.4889 0,25.29163 0,36.00003 18.9004,0 37.6538,0 53.9608,0 0,-12.66453 0,-25.02363 0,-36.00003 -18.900401,0 -37.6538,0 -53.9608,0 z m 1.9985,2 49.963799,0 0,32.00003 -49.9638,0 z m 57.9581,9 c 5.342,0 10.7022,0 16.0508,0 1.577299,0.022 1.807199,0.8869 1.998499,2 l 0,2 c -0.041,1.5613 -0.9131,1.8095 -1.9985,2 -5.3483,0 -10.7089,0 -16.0508,0 z m 8.0254,30.96893 c -2.1957,0 -3.9659,1.8339 -3.9659,4.0311 0,1.5597 0.9098,2.9086 2.2172,3.5625 -0.7466,0.548 -1.2179,1.4493 -1.2179,2.4375 0,1.645 1.354,3 2.9978,3 1.6438,0 2.9978,-1.355 2.9978,-3 0,-0.9882 -0.5026,-1.8895 -1.249,-2.4375 1.3029,-0.6554 2.2171,-2.0061 2.2171,-3.5625 0,-2.1973 -1.8014,-4.0311 -3.9971,-4.0311 z m -45.2485,0.031 8.4938,0 1.78,6.25 c 0.1099,0.4256 0.5289,0.7501 0.9681,0.75 1.9152,0 5.3664,0.2317 8.2127,1.0625 1.4233,0.4154 2.6894,0.9869 3.5287,1.6563 0.8394,0.6693 1.2492,1.3645 1.2492,2.2812 0,0.9167 -0.4251,1.644 -1.3741,2.4061 -0.9489,0.7625 -2.42,1.4602 -4.2781,2 -3.7163,1.0798 -8.8979,1.5939 -14.3333,1.5939 -5.4355,0 -10.6172,-0.514 -14.3335,-1.5939 -1.858,-0.5398 -3.3292,-1.2375 -4.2781,-2 -0.948901,-0.7623 -1.374001,-1.4894 -1.374001,-2.4061 0,-0.9167 0.409801,-1.6121 1.2491,-2.2812 0.8393,-0.6694 2.1055,-1.2409 3.5287,-1.6563 2.8463,-0.8308 6.2975,-1.0625 8.2128,-1.0625 0.4392,10e-5 0.8581,-0.3244 0.968001,-0.75 z m 45.2485,2 c 1.1155,0 2.0298,0.8837 2.0298,2 0,1.1162 -0.9143,1.9688 -2.0298,1.9688 -1.1155,0 -1.9986,-0.8525 -1.9986,-1.9688 0,-1.1163 0.8831,-2 1.9986,-2 z m 0.031,7 c 0.5637,0 0.9994,0.4359 0.9994,1 0,0.564 -0.4357,1 -0.9994,1 -0.5636,0 -0.9991,-0.436 -0.9991,-1 0,-0.5641 0.4355,-1 0.9991,-1 z" style="text-indent:0;text-transform:none;direction:ltr;block-progression:tb;baseline-shift:baseline;color:#000000;enable-background:accumulate;" fill="#000000" fill-opacity="1" stroke="none" marker="none" visibility="visible" display="inline" overflow="visible"/></g><text x="0" y="115" fill="#000000" font-size="5px" font-weight="bold" font-family="'Helvetica Neue', Helvetica, Arial-Unicode, Arial, Sans-serif">Created by art shop</text><text x="0" y="120" fill="#000000" font-size="5px" font-weight="bold" font-family="'Helvetica Neue', Helvetica, Arial-Unicode, Arial, Sans-serif">from the Noun Project</text></svg>