<svg class="svgIcon" xmlns="http://www.w3.org/2000/svg" xmlns:xlink="http://www.w3.org/1999/xlink" version="1.1" x="0px" y="0px" viewBox="0 0 80 100" enable-background="new 0 0 80 80" xml:space="preserve"><g><g><path fill="#000000" d="M44,66H29c-1.103,0-2-0.897-2-2v-7c0-1.103,0.897-2,2-2h15c1.103,0,2,0.897,2,2v7    C46,65.103,45.103,66,44,66z M29,57v7h15.001L44,57H29z"/></g><g><path fill="#000000" d="M65,66H50c-1.103,0-2-0.897-2-2v-7c0-1.103,0.897-2,2-2h15c1.103,0,2,0.897,2,2v7    C67,65.103,66.103,66,65,66z M50,57v7h15.001L65,57H50z"/></g><g><path fill="#000000" d="M35,27H20c-1.103,0-2-0.897-2-2v-7c0-1.103,0.897-2,2-2h15c1.103,0,2,0.897,2,2v7    C37,26.103,36.103,27,35,27z M20,18v7h15.001L35,18H20z"/></g><g><path fill="#000000" d="M56,27H41c-1.103,0-2-0.897-2-2v-7c0-1.103,0.897-2,2-2h15c1.103,0,2,0.897,2,2v7    C58,26.103,57.103,27,56,27z M41,18v7h15.001L56,18H41z"/></g><g><path fill="#000000" d="M56,53H41c-1.103,0-2-0.897-2-2v-7c0-1.103,0.897-2,2-2h15c1.103,0,2,0.897,2,2v7    C58,52.103,57.103,53,56,53z M41,44v7h15.001L56,44H41z"/></g><g><path fill="#000000" d="M35,53H20c-1.103,0-2-0.897-2-2v-7c0-1.103,0.897-2,2-2h15c1.103,0,2,0.897,2,2v7    C37,52.103,36.103,53,35,53z M20,44v7h15.001L35,44H20z"/></g><g><path fill="#000000" d="M65,40H50c-1.103,0-2-0.897-2-2v-7c0-1.103,0.897-2,2-2h15c1.103,0,2,0.897,2,2v7    C67,39.103,66.103,40,65,40z M50,31v7h15.001L65,31H50z"/></g><g><path fill="#000000" d="M44,40H29c-1.103,0-2-0.897-2-2v-7c0-1.103,0.897-2,2-2h15c1.103,0,2,0.897,2,2v7    C46,39.103,45.103,40,44,40z M29,31v7h15.001L44,31H29z"/></g></g></svg>